<?xml version="1.0" encoding="UTF-8"?>
<svg version="1.1" viewBox="0 0 2048 2048" width="1280" height="1280" xmlns="http://www.w3.org/2000/svg">
<path transform="translate(0)" d="m0 0h2048v2048h-2048z" fill="#fff"/>
<path transform="translate(811,545)" d="m0 0h200l1 78 348 1 12 2 13 5 10 6 10 9 7 8 7 12 5 16 1 8v422l-3 17-6 14-8 11-10 10-9 6-14 6-13 3-273 1h-304l-100-1-16-4-15-8-12-10-9-12-6-13-4-16v-429l4-17 8-15 11-13 13-9 13-6 15-3h123v-78z" fill="#fff"/>
<path transform="translate(811,545)" d="m0 0h200l1 78 348 1 12 2 13 5 10 6 10 9 7 8 7 12 5 16 1 8v422l-3 17-6 14-8 11-10 10-9 6-14 6-13 3-273 1h-304l-100-1-16-4-15-8-12-10-9-12-6-13-4-16v-429l4-17 8-15 11-13 13-9 13-6 15-3h123v-78zm-122 116-10 3-8 6-7 8-4 10v424l3 11 6 8 8 7 11 4 413 1h166l92-1 10-3 10-7 6-9 2-6 1-9v-415l-2-10-6-10-8-7-9-4-6-1z" fill="#2F2F2F"/>
<path transform="translate(894,727)" d="m0 0h33l20 3 21 6 15 6 21 11 14 10 14 12 9 9 11 14 10 15 11 22 7 21 4 20 2 20v13l-3 25-6 23-6 15-8 16-10 16-11 13-11 12-11 9-12 9-17 10-15 7-21 7-19 4-8 1h-34l-20-3-24-7-18-8-16-9-16-12-12-11-10-10-10-13-10-16-8-16-6-15-5-19-3-20v-29l3-21 5-20 8-20 11-20 8-11 9-11 9-10 8-7 13-10 18-11 17-8 21-7 20-4z" fill="#fff"/>
<path transform="translate(894,727)" d="m0 0h33l20 3 21 6 15 6 21 11 14 10 14 12 9 9 11 14 10 15 11 22 7 21 4 20 2 20v13l-3 25-6 23-6 15-8 16-10 16-11 13-11 12-11 9-12 9-17 10-15 7-21 7-19 4-8 1h-34l-20-3-24-7-18-8-16-9-16-12-12-11-10-10-10-13-10-16-8-16-6-15-5-19-3-20v-29l3-21 5-20 8-20 11-20 8-11 9-11 9-10 8-7 13-10 18-11 17-8 21-7 20-4zm4 37-19 3-17 5-14 6-16 10-14 11-11 11-10 13-9 15-8 19-5 19-2 13v24l3 19 6 20 9 19 10 14 9 11 9 9 10 8 14 9 17 8 19 6 17 3h29l18-3 21-7 21-11 12-9 10-9 10-10 11-15 8-15 6-15 5-21 1-7v-31l-3-17-7-21-11-21-12-16-14-14-12-9-13-8-12-6-21-7-19-3z" fill="#2F2F2F"/>
<path transform="translate(905,844)" d="m0 0h12l13 3 12 6 10 8 8 11 5 10 3 11v15l-4 16-7 12-8 9-14 9-13 4-5 1h-11l-15-3-12-6-10-9-6-7-7-14-3-15 1-14 4-13 8-13 9-9 10-6 9-4z" fill="#2F2F2F"/>
<path transform="translate(1256,1310)" d="m0 0h16l16 3 16 6 1 8v75l-1 14-4 12-7 8-10 6-12 3h-23l-18-4-5-2v-7l3-12 2-1 16 4 6 1h12l10-3 5-6 2-16 1-3-14 7-7 2h-8l-9-2-10-6-7-9-5-12-2-18 2-16 4-11 5-8 8-7 8-4z" fill="#2F2F2F"/>
<path transform="translate(661,1277)" d="m0 0h7l5 5 12 18 16 23 14 20 3 5 2 1v-71l2-1 22 1v124h-17l-8-10-12-18-11-16-17-25-11-16-1 85h-24v-124z" fill="#2F2F2F"/>
<path transform="translate(1179,1489)" d="m0 0h5l1 50 14-7 6-1h8l13 4 9 8 6 10 4 16v14l-3 15-6 12-8 8-12 6-8 2h-10l-12-3-4-2h-4l-4 5h-13v-133l13-3z" fill="#2F2F2F"/>
<path transform="translate(995,1310)" d="m0 0h2v11l12-8 10-3h12l9 3 6 5 2 3 4-2 7-5 13-4h11l9 3 8 7 4 8 1 4v70h-22l-1-1-1-61-4-6-5-2-10 2-8 5-1 2-1 60-1 1h-22l-1-59-2-6-5-4-5-1-9 3-8 5-1 3-1 59h-22l-1-1v-87z" fill="#2F2F2F"/>
<path transform="translate(802,1310)" d="m0 0h15l12 3 9 5 8 9 5 11 2 9v20l-3 13-4 8-7 8-8 5-10 3-14 1-12-2-9-4-8-6-6-9-4-11-1-5v-21l3-13 5-9 4-5 11-7z" fill="#2F2F2F"/>
<path transform="translate(709,1498)" d="m0 0 6 2 12 30 13 32 15 37 8 20v4h-24l-4-10-7-18v-2h-43l-3 9-8 20-1 1h-24l1-5 15-37 26-64 7-17 1-1z" fill="#2F2F2F"/>
<path transform="translate(847,582)" d="m0 0h127l1 1v40l-1 1h-127z" fill="#fff"/>
<path transform="translate(1348,1531)" d="m0 0h12l12 3 8 6 5 6 4 10v18l-2 8-21 1h-33l4 12 5 6 7 3h16l12-3 9-3 3 17-3 3-13 5-16 3h-8l-14-3-11-6-8-9-5-11-1-5v-23l4-14 7-11 9-7 8-4z" fill="#2F2F2F"/>
<path transform="translate(1363,1310)" d="m0 0h14l9 2 8 5 7 8 3 7 1 5v14l-2 9-1 1-52 1 1 8 4 8 6 4 4 1h15l15-4 7-2 2 11v7l-12 6-12 3-14 1-15-3-11-6-8-9-5-11-2-10v-13l3-15 5-10 8-9 10-6z" fill="#2F2F2F"/>
<path transform="translate(901,1531)" d="m0 0 16 1 10 4 7 8 2 7 1 61h9l1 1v8l-3 3-5 1h-19l-5-5-3-4-9 6-7 3-5 1h-10l-10-4-6-7-2-6v-8l4-10 9-8 16-7 17-4h4l-1-12-2-5-7-2-14 1-15 4-4 1-3-11v-7l8-4 12-4z" fill="#2F2F2F"/>
<path transform="translate(1160,1310)" d="m0 0h14l12 3 8 7 4 10 1 60 9 1 1 8-1 3-2 1-10 1h-11l-7-3-3-6-18 9-13 1-9-3-6-5-3-6-1-4v-7l3-8 7-8 10-6 16-5 13-3v-10l-2-6-5-2h-12l-17 4-7 1-3-16 4-3 13-5z" fill="#2F2F2F"/>
<path transform="translate(1096,1531)" d="m0 0h10l13 3 7 5 5 10 1 63h9l1 1v9l-5 2-5 1h-17l-4-3-2-5-4 1-14 7-4 1h-10l-9-3-5-4-4-7v-14l4-8 7-6 12-6 17-5 9-1-1-13-3-5-5-1h-8l-15 3-11 3-3-12v-5l6-4 15-5z" fill="#2F2F2F"/>
<path transform="translate(1212,724)" d="m0 0h103l1 1v35l-1 1h-104v-36z" fill="#2F2F2F"/>
<path transform="translate(765,1533)" d="m0 0h23l4 9 15 41 1 1 17-48 1-2 24-1-1 7-12 31-16 40-4 11-2 1h-16l-4-8-15-38-16-41z" fill="#2F2F2F"/>
<path transform="translate(1287,1488)" d="m0 0 2 1v133l-1 1h-23v-129l2-2z" fill="#2F2F2F"/>
<path transform="translate(1036,1488)" d="m0 0 2 1v133l-1 1h-22l-1-9v-104l1-17 12-3z" fill="#2F2F2F"/>
<path transform="translate(942,1277)" d="m0 0h4v125h-23l-1-1v-123z" fill="#2F2F2F"/>
<path transform="translate(982,1532)" d="m0 0h7v90l-1 1h-22l-1-3v-79l2-6z" fill="#2F2F2F"/>
<path transform="translate(806,1329)" d="m0 0h8l8 4 5 8 2 7v19l-4 11-7 6-3 1h-11l-6-4-4-5-3-8-1-7v-8l2-10 5-9 6-4z" fill="#fff"/>
<path transform="translate(1092,452)" d="m0 0 7 1 5 6v6l-6 8-8 7-8 9h-2l-1 3-8 7-13 14h-2v2l-8 7-3 3h-8l-6-6v-6l6-8 51-51z" fill="#2F2F2F"/>
<path transform="translate(1263,1329)" d="m0 0 13 2 5 2v42l-9 7-8 2h-7l-5-3-5-6-3-11v-11l3-13 4-6 6-4z" fill="#fff"/>
<path transform="translate(1198,1552)" d="m0 0h10l7 4 5 10 1 5v13l-3 12-7 8-5 2h-12l-9-4-1-1v-38l7-8z" fill="#fff"/>
<path transform="translate(1e3 422)" d="m0 0 7 1 4 4v74l-3 4-3 1h-7l-4-2-2-4v-72l5-5z" fill="#2F2F2F"/>
<path transform="translate(1055,545)" d="m0 0h73l4 2 2 4v7l-4 5-2 1h-72l-5-5-1-7z" fill="#2F2F2F"/>
<path transform="translate(909,881)" d="m0 0 8 1 6 3 6 7 2 7-1 10-4 6-6 5-7 2-9-1-7-4-6-9v-12l4-8 9-6z" fill="#fff"/>
<path transform="translate(974,1489)" d="m0 0 9 1 6 4 3 5 1 6-3 7-6 5-8 2-7-3-5-5-2-9 3-7 4-4z" fill="#2F2F2F"/>
<path transform="translate(705,1541)" d="m0 0 3 1 11 28v3l-26 1 3-10z" fill="#fff"/>
<path transform="translate(908,1586)" d="m0 0h5v12l-8 7-9 4-6-1-3-4 1-7 7-6z" fill="#fff"/>
<path transform="translate(1169,1365)" d="m0 0h5l1 1v11l-5 5-10 5h-7l-4-5 1-6 5-5 8-4z" fill="#fff"/>
<path transform="translate(1103,1586)" d="m0 0h5v13l-8 6-9 4-5-1-3-3-1-5 4-6 6-4z" fill="#fff"/>
<path transform="translate(1349,1551)" d="m0 0h8l6 3 2 4v8l-7 1h-21l-2-1 1-5 5-6z" fill="#fff"/>
<path transform="translate(1363,1330)" d="m0 0h11l4 2 3 6v7h-30l1-5 7-8z" fill="#fff"/>
</svg>
